<svg width="16" height="16" viewBox="0 0 16 16" fill="none" xmlns="http://www.w3.org/2000/svg">
<g clip-path="url(#clip0_32_3468)">
<path fill-rule="evenodd" clip-rule="evenodd" d="M3.23755 3.65676C3.23755 2.58882 4.10738 1.71899 5.17531 1.71899C6.24208 1.71899 7.11308 2.5829 7.11308 3.65676C7.11308 3.95131 6.8743 4.19009 6.57975 4.19009C6.2852 4.19009 6.04641 3.95131 6.04641 3.65676C6.04641 3.17435 5.65532 2.78566 5.17531 2.78566C4.69648 2.78566 4.30422 3.17792 4.30422 3.65676V9.05623C4.30422 9.35078 4.06543 9.58957 3.77088 9.58957C3.47633 9.58957 3.23755 9.35078 3.23755 9.05623V3.65676Z" fill="#76D5D8"/>
<path fill-rule="evenodd" clip-rule="evenodd" d="M4.64197 5.1039C4.64197 4.03596 5.51179 3.16614 6.57973 3.16614C7.61868 3.16614 8.47194 3.98558 8.51573 5.02033C8.52002 5.04756 8.52224 5.07547 8.52224 5.1039C8.52224 5.39846 8.28346 5.63724 7.98891 5.63724H5.1753C4.88075 5.63724 4.64197 5.39846 4.64197 5.1039ZM7.26863 4.57057H5.89237C6.05216 4.36542 6.30131 4.2328 6.57973 4.2328C6.85952 4.2328 7.1091 4.36487 7.26863 4.57057Z" fill="#76D5D8"/>
<path fill-rule="evenodd" clip-rule="evenodd" d="M1.83789 10.4796C1.83789 10.1851 2.07667 9.94629 2.37122 9.94629H13.303C13.5976 9.94629 13.8364 10.1851 13.8364 10.4796C13.8364 12.7575 11.9891 14.6047 9.71128 14.6047H5.96296C3.68513 14.6047 1.83789 12.7575 1.83789 10.4796ZM2.95093 11.013C3.20335 12.4476 4.45615 13.538 5.96296 13.538H9.71128C11.2181 13.538 12.4709 12.4476 12.7233 11.013H2.95093Z" fill="#3E454C"/>
<path fill-rule="evenodd" clip-rule="evenodd" d="M1.3634 9.10365C1.3634 8.80909 1.60218 8.57031 1.89674 8.57031H13.7775C14.072 8.57031 14.3108 8.80909 14.3108 9.10365V10.4796C14.3108 10.7742 14.072 11.0129 13.7775 11.0129H1.89674C1.60218 11.0129 1.3634 10.7742 1.3634 10.4796V9.10365ZM2.43007 9.63698V9.94628H13.2441V9.63698H2.43007Z" fill="#3E454C"/>
</g>
<defs>
<clipPath id="clip0_32_3468">
<rect width="12.8297" height="12.768" fill="white" transform="translate(1.42224 1.77783)"/>
</clipPath>
</defs>
</svg>
