<svg width="16" height="16" viewBox="0 0 16 16" fill="none" xmlns="http://www.w3.org/2000/svg">
<path fill-rule="evenodd" clip-rule="evenodd" d="M5.50793 6.17177C5.50793 5.51838 6.03924 4.99255 6.68989 4.99255H9.66577C10.3164 4.99255 10.8477 5.51838 10.8477 6.17177V7.6839C10.8477 7.97845 10.609 8.21723 10.3144 8.21723C10.0198 8.21723 9.78106 7.97845 9.78106 7.6839V6.17177C9.78106 6.11174 9.73158 6.05922 9.66577 6.05922H6.68989C6.62409 6.05922 6.5746 6.11174 6.5746 6.17177V7.6839C6.5746 7.97845 6.33582 8.21723 6.04127 8.21723C5.74672 8.21723 5.50793 7.97845 5.50793 7.6839V6.17177Z" fill="#76D5D8"/>
<path fill-rule="evenodd" clip-rule="evenodd" d="M2.93299 5.5258C2.93299 4.15899 4.04509 3.05481 5.41219 3.05481H10.9433C12.3104 3.05481 13.4225 4.15899 13.4225 5.5258V7.68382C13.4225 7.71863 13.4191 7.75267 13.4128 7.78563C14.1902 8.20218 14.7197 9.02027 14.7197 9.96342V11.2552V12.7673C14.7197 13.0619 14.4809 13.3006 14.1864 13.3006C13.8918 13.3006 13.6531 13.0619 13.6531 12.7673V11.7885H2.70241V12.7673C2.70241 13.0619 2.46363 13.3006 2.16908 13.3006C1.87452 13.3006 1.63574 13.0619 1.63574 12.7673V11.2552V9.96342C1.63574 9.02027 2.16526 8.20218 2.94269 7.78563C2.93632 7.75268 2.93299 7.71864 2.93299 7.68382V5.5258ZM2.70241 10.7219H13.6531V9.96342C13.6531 9.18995 13.0228 8.55909 12.2405 8.55909H4.11495C3.33269 8.55909 2.70241 9.18995 2.70241 9.96342V10.7219ZM12.3558 5.5258V7.49505C12.3176 7.49331 12.2792 7.49242 12.2405 7.49242H4.11495C4.0763 7.49242 4.03787 7.49331 3.99965 7.49505V5.5258C3.99965 4.75234 4.62994 4.12148 5.41219 4.12148H10.9433C11.7255 4.12148 12.3558 4.75234 12.3558 5.5258Z" fill="#3E454C"/>
</svg>
