<svg width="263" height="28" viewBox="0 0 263 28" fill="none" xmlns="http://www.w3.org/2000/svg">
<g clip-path="url(#clip0_4_9856)">
<path fill-rule="evenodd" clip-rule="evenodd" d="M31.1131 13.9372L32.0741 13.7624V6.09996L31.1352 5.9954V5.42657H37.0382L37.2032 7.08537H36.5778L36.316 6.11167L33.177 6.03638V9.41505L35.2927 9.37489L35.4634 8.46477H36.0436V10.9567H35.4634L35.2927 10.07L33.177 10.0357V13.8034L36.5549 13.6938L37.1236 12.4926L37.6759 12.6323L37.4198 14.4291H31.1131V13.9372Z" fill="#3E454C"/>
<path fill-rule="evenodd" clip-rule="evenodd" d="M38.0678 13.9372L38.9213 13.8092L40.8146 11.2871L38.836 8.66135L38.0564 8.55679V7.94279H40.9057V8.55679L40.1154 8.66135L41.2241 10.3252L41.4974 10.7476L41.7247 10.3427L42.8506 8.64462L42.0431 8.55679V7.94279H44.6077V8.55679L43.7263 8.66721L41.8724 11.1424L43.9085 13.8209L44.6528 13.9372V14.4291H41.8379V13.9372L42.6233 13.8151C42.4789 13.5942 42.3541 13.4077 42.2474 13.2529C42.1416 13.0982 42.0513 12.9677 41.9774 12.8615C41.9036 12.7552 41.8429 12.6699 41.7953 12.6063C41.7477 12.5427 41.7099 12.4909 41.682 12.4532C41.6533 12.4148 41.6311 12.3863 41.6164 12.3688C41.6016 12.3512 41.5901 12.3345 41.5827 12.3194L41.1839 11.7456L40.9451 12.1856L39.8306 13.8151L40.8597 13.9372V14.4291H38.0678V13.9372Z" fill="#3E454C"/>
<path fill-rule="evenodd" clip-rule="evenodd" d="M70.0168 13.9368L70.9827 13.8147V9.06748L70.1981 8.6442V8.28534L71.773 7.82693L72.0298 7.94237V13.8147L72.9506 13.9368V14.4287H70.0168V13.9368ZM71.2732 6.45925C71.1821 6.45925 71.0927 6.44251 71.0056 6.40989C70.9186 6.37727 70.8423 6.33042 70.7759 6.27019C70.7094 6.2108 70.656 6.13635 70.6158 6.04768C70.5764 5.95818 70.5567 5.85779 70.5567 5.7457C70.5567 5.62608 70.5822 5.51399 70.6339 5.41026C70.6839 5.3057 70.7496 5.21619 70.8292 5.14091C70.9096 5.06479 70.999 5.00623 71.0992 4.96357C71.2002 4.92091 71.3011 4.89999 71.4037 4.89999C71.6539 4.89999 71.837 4.9711 71.9527 5.11163C72.0684 5.25217 72.1259 5.42198 72.1259 5.61855C72.1259 5.7457 72.1012 5.86198 72.052 5.96571C72.0036 6.07027 71.9387 6.15894 71.8591 6.23088C71.7787 6.30198 71.6885 6.35803 71.5858 6.39818C71.4833 6.43917 71.379 6.45925 71.2732 6.45925Z" fill="#3E454C"/>
<path fill-rule="evenodd" clip-rule="evenodd" d="M45.2446 11.2061C45.2446 10.7117 45.3217 10.2558 45.4752 9.83756C45.6287 9.42098 45.8429 9.06044 46.1178 8.75512C46.3927 8.44896 46.7234 8.20888 47.1099 8.03238C47.4965 7.85671 47.9232 7.76302 48.3894 7.75131C48.7234 7.74378 49.0245 7.79314 49.2937 7.89937C49.5629 8.00561 49.7927 8.16371 49.9822 8.37284C50.171 8.58112 50.3204 8.83542 50.4279 9.1374C50.5362 9.43854 50.5977 9.78068 50.6133 10.163C50.6207 10.4064 50.6158 10.6172 50.5986 10.7954C50.5813 10.9727 50.5641 11.1308 50.5452 11.2705H46.3311V11.3366C46.3311 11.3583 46.3328 11.3801 46.3369 11.4035C46.3517 11.8711 46.4296 12.2576 46.57 12.5629C46.7103 12.8691 46.8851 13.1108 47.096 13.2898C47.3061 13.4697 47.5383 13.596 47.7927 13.6679C48.0463 13.739 48.295 13.7742 48.5371 13.7742C48.6848 13.7742 48.8407 13.7658 49.004 13.7474C49.1665 13.7315 49.3249 13.7056 49.4784 13.6721C49.6318 13.6395 49.7746 13.6018 49.9051 13.56C50.0356 13.5174 50.1406 13.473 50.2211 13.427L50.4311 13.9189C50.3212 14.0193 50.1776 14.1104 50.0011 14.1924C49.8255 14.2727 49.6326 14.3413 49.4242 14.3982C49.2158 14.4534 48.9983 14.4961 48.7701 14.5254C48.5428 14.5538 48.3212 14.5689 48.1054 14.5689C47.6467 14.5689 47.2396 14.4877 46.8851 14.3279C46.5306 14.1673 46.2327 13.9423 45.9897 13.6495C45.7468 13.3576 45.5622 13.0063 45.435 12.5913C45.3078 12.1781 45.2446 11.7172 45.2446 11.2061ZM49.4529 10.5862C49.4644 10.3888 49.4669 10.1906 49.4611 9.99148C49.4554 9.79323 49.4324 9.60334 49.3906 9.42432C49.3487 9.24447 49.2847 9.07968 49.1993 8.93079C49.1148 8.78273 48.9999 8.66144 48.8555 8.56858C48.757 8.50333 48.6454 8.45397 48.5207 8.42135C48.3951 8.38873 48.2531 8.37284 48.0939 8.37284C47.8814 8.37284 47.6754 8.41215 47.4768 8.49329C47.2782 8.57527 47.0993 8.70409 46.9417 8.88227C46.785 9.06044 46.6528 9.28881 46.547 9.56821C46.4411 9.84927 46.373 10.1881 46.3418 10.5862H49.4529Z" fill="#3E454C"/>
<path fill-rule="evenodd" clip-rule="evenodd" d="M51.7842 11.3108C51.7809 10.7771 51.858 10.2961 52.0172 9.86701C52.1765 9.43871 52.3956 9.07149 52.6738 8.76616C52.9528 8.46084 53.2811 8.2241 53.6577 8.05262C54.0352 7.88281 54.4415 7.78828 54.8781 7.76988C55.0373 7.76486 55.1989 7.76821 55.3639 7.77741C55.5288 7.78745 55.6839 7.80501 55.83 7.8301C55.9761 7.85437 56.1099 7.88699 56.2313 7.92547C56.3528 7.96396 56.4513 8.00912 56.5268 8.05848V9.44959H55.9868L55.6971 8.71932C55.6363 8.66996 55.5658 8.6273 55.4862 8.59217C55.4066 8.55703 55.3253 8.52859 55.2416 8.50517C55.1579 8.48175 55.075 8.46586 54.9913 8.45581C54.9084 8.44578 54.8321 8.44076 54.764 8.44076C54.5104 8.44076 54.2675 8.49011 54.0361 8.58631C53.8046 8.68251 53.6003 8.8289 53.4222 9.02464C53.2441 9.21871 53.1013 9.46465 52.9955 9.75993C52.8896 10.0552 52.8346 10.4032 52.8305 10.8005C52.8272 11.3267 52.8872 11.7768 53.0127 12.1515C53.1374 12.5254 53.3007 12.8324 53.5018 13.07C53.702 13.3084 53.9261 13.4816 54.1731 13.592C54.4193 13.7016 54.6614 13.7576 54.9002 13.7576C55.0488 13.7576 55.2022 13.7476 55.3614 13.7283C55.5206 13.7083 55.6741 13.684 55.8218 13.653C55.9695 13.6221 56.1066 13.5844 56.2313 13.5401C56.3561 13.4949 56.4586 13.4506 56.5383 13.4029L56.7319 13.9191C56.622 14.0194 56.4857 14.1089 56.3224 14.1859C56.1591 14.2629 55.9802 14.3289 55.7849 14.3833C55.5896 14.4368 55.3852 14.4787 55.1702 14.5071C54.9568 14.5364 54.7418 14.5515 54.5252 14.5515C54.0853 14.5515 53.6971 14.4695 53.359 14.308C53.0217 14.1457 52.737 13.9191 52.5031 13.6296C52.2708 13.3394 52.0927 12.9964 51.9721 12.6007C51.8507 12.2042 51.7875 11.7742 51.7842 11.3108Z" fill="#3E454C"/>
<path fill-rule="evenodd" clip-rule="evenodd" d="M58.3467 8.76616L57.7607 8.59217V8.14547L59.2223 7.82677L59.4217 7.93132V11.9248C59.4217 12.246 59.439 12.5212 59.4726 12.7513C59.5071 12.9813 59.5694 13.1712 59.6605 13.3193C59.7508 13.4682 59.8764 13.5778 60.0356 13.6497C60.1948 13.7216 60.3991 13.7576 60.6494 13.7576C60.8201 13.7576 60.9884 13.7325 61.1525 13.684C61.3183 13.6363 61.4717 13.5778 61.6137 13.5108C61.7557 13.4431 61.8796 13.372 61.9863 13.2967C62.0921 13.2206 62.1701 13.1562 62.2193 13.1026V8.81802L61.5087 8.63232V8.15719L63.1343 7.82677L63.2944 7.92547V13.9375H63.9764V14.3766C63.9197 14.4076 63.85 14.4377 63.7662 14.4661C63.6826 14.4962 63.5923 14.5222 63.4963 14.5448C63.3995 14.569 63.301 14.5874 63.2009 14.6042C63.0999 14.6184 63.0039 14.6267 62.9128 14.6267C62.7306 14.6267 62.5878 14.5866 62.4844 14.5071C62.3802 14.4293 62.3277 14.3013 62.3277 14.1282V13.653C61.9978 13.9458 61.6514 14.1692 61.2895 14.3223C60.9276 14.4745 60.5739 14.5515 60.2284 14.5515C59.782 14.5515 59.4332 14.4804 59.1829 14.339C58.9326 14.1985 58.7455 14.0035 58.6224 13.7543C58.4993 13.5041 58.4238 13.2097 58.3951 12.8701C58.3664 12.5304 58.3499 12.1599 58.3467 11.7575V8.76616Z" fill="#3E454C"/>
<path fill-rule="evenodd" clip-rule="evenodd" d="M65.9782 12.9112C65.9782 12.1993 65.9791 11.4933 65.9815 10.7923C65.9832 10.0913 65.9839 9.38443 65.9839 8.6734H65.114V8.23842C65.2806 8.19576 65.4201 8.16229 65.5318 8.1372C65.6442 8.11294 65.7369 8.08366 65.8108 8.0502C65.8846 8.01758 65.9462 7.97575 65.9954 7.92556C66.0447 7.87537 66.0906 7.80259 66.1317 7.70556C66.1588 7.63948 66.1915 7.54244 66.2318 7.41529C66.2712 7.2873 66.3089 7.15765 66.345 7.02464C66.3811 6.8908 66.4124 6.76449 66.4394 6.64738C66.4657 6.52943 66.4821 6.44578 66.4903 6.39558H67.0533V7.94313H68.9646V8.6734H67.0533V11.5945C67.0533 12.0437 67.059 12.4076 67.0705 12.687C67.082 12.9672 67.1099 13.1872 67.1559 13.3461C67.201 13.5042 67.2674 13.6113 67.3545 13.6674C67.4415 13.7234 67.5637 13.751 67.7188 13.751C67.8132 13.751 67.9182 13.741 68.0339 13.7226C68.1497 13.7025 68.2613 13.6799 68.3696 13.6531C68.4779 13.6255 68.5772 13.5954 68.6683 13.5628C68.7594 13.5302 68.8275 13.4975 68.8726 13.4666L69.0491 13.9769C68.9621 14.0747 68.8464 14.1592 68.7019 14.232C68.5583 14.3056 68.4016 14.3675 68.2334 14.4177C68.0643 14.4679 67.8961 14.5055 67.727 14.5306C67.5588 14.5566 67.4095 14.5683 67.2806 14.5683C66.8678 14.5683 66.5469 14.4386 66.3196 14.181C66.0922 13.9208 65.9782 13.4975 65.9782 12.9112Z" fill="#3E454C"/>
<path fill-rule="evenodd" clip-rule="evenodd" d="M73.8258 8.66161L73.2743 8.55203V7.94305H75.7764V8.55203L75.0772 8.67333L76.323 11.7692L76.8573 13.4264L77.38 11.8378L78.4665 8.67333L77.7387 8.55705V7.94305H80.0078V8.55203L79.4046 8.67918L77.0903 14.569H76.323L73.8258 8.66161Z" fill="#3E454C"/>
<path fill-rule="evenodd" clip-rule="evenodd" d="M80.5882 11.2061C80.5882 10.7117 80.6645 10.2558 80.818 9.83756C80.9722 9.42098 81.1864 9.06044 81.4613 8.75512C81.7354 8.44896 82.0661 8.20888 82.4535 8.03238C82.8401 7.85671 83.2668 7.76302 83.7329 7.75131C84.0661 7.74378 84.3681 7.79314 84.6372 7.89937C84.9065 8.00561 85.1354 8.16371 85.325 8.37284C85.5146 8.58112 85.6639 8.83542 85.7706 9.1374C85.8789 9.43854 85.9413 9.78068 85.956 10.163C85.9635 10.4064 85.9594 10.6172 85.9413 10.7954C85.9249 10.9727 85.9068 11.1308 85.8879 11.2705H81.6739V11.3366C81.6739 11.3583 81.6755 11.3801 81.6796 11.4035C81.6952 11.8711 81.7723 12.2576 81.9127 12.5629C82.053 12.8691 82.2286 13.1108 82.4388 13.2898C82.6497 13.4697 82.8819 13.596 83.1363 13.6679C83.3891 13.739 83.6377 13.7742 83.8806 13.7742C84.0283 13.7742 84.1834 13.7658 84.3468 13.7474C84.5093 13.7315 84.6685 13.7056 84.8211 13.6721C84.9754 13.6395 85.1173 13.6018 85.2487 13.56C85.3791 13.5174 85.4842 13.473 85.5638 13.427L85.7739 13.9189C85.6648 14.0193 85.5211 14.1104 85.3447 14.1924C85.1682 14.2727 84.9762 14.3413 84.7678 14.3982C84.5593 14.4534 84.341 14.4961 84.1137 14.5254C83.8864 14.5538 83.664 14.5689 83.4481 14.5689C82.9894 14.5689 82.5832 14.4877 82.2286 14.3279C81.8733 14.1673 81.5754 13.9423 81.3325 13.6495C81.0895 13.3576 80.9057 13.0063 80.7777 12.5913C80.6514 12.1781 80.5882 11.7172 80.5882 11.2061ZM84.7956 10.5862C84.808 10.3888 84.8104 10.1906 84.8047 9.99148C84.799 9.79323 84.7751 9.60334 84.7333 9.42432C84.6914 9.24447 84.6282 9.07968 84.5429 8.93079C84.4575 8.78273 84.3427 8.66144 84.1982 8.56858C84.0998 8.50333 83.9889 8.45397 83.8634 8.42135C83.7387 8.38873 83.5958 8.37284 83.4374 8.37284C83.2249 8.37284 83.0189 8.41215 82.8203 8.49329C82.6209 8.57527 82.4429 8.70409 82.2853 8.88227C82.1277 9.06044 81.9964 9.28881 81.8905 9.56821C81.7839 9.84927 81.7157 10.1881 81.6853 10.5862H84.7956Z" fill="#3E454C"/>
<path fill-rule="evenodd" clip-rule="evenodd" d="M90.1074 13.9372L91.0684 13.7624V6.09996L90.1304 5.9954V5.42657H93.1045V5.9954L92.1772 6.09327V9.71033H96.5398V6.09327L95.6009 5.9954V5.42657H98.5586V5.9954L97.6427 6.09327V13.7624L98.621 13.9372V14.4291H95.5615V13.9372L96.5398 13.7691V10.3954H92.1772V13.7624L93.1562 13.9372V14.4291H90.1074V13.9372Z" fill="#3E454C"/>
<path fill-rule="evenodd" clip-rule="evenodd" d="M99.792 11.055C99.7994 10.5381 99.8871 10.0746 100.056 9.6681C100.224 9.25988 100.448 8.91524 100.725 8.63249C101.001 8.35142 101.32 8.13393 101.683 7.98336C102.045 7.83363 102.423 7.75583 102.817 7.75165C103.299 7.7483 103.717 7.83363 104.074 8.00678C104.43 8.18078 104.726 8.42002 104.958 8.722C105.191 9.02565 105.365 9.382 105.478 9.79189C105.592 10.2026 105.647 10.6401 105.643 11.1077C105.64 11.6222 105.559 12.0906 105.402 12.5164C105.244 12.9422 105.033 13.3061 104.764 13.6089C104.498 13.9125 104.184 14.1476 103.826 14.3166C103.468 14.4847 103.084 14.5684 102.675 14.5684C102.152 14.5684 101.707 14.4713 101.339 14.2789C100.97 14.0857 100.671 13.8264 100.44 13.5018C100.209 13.1772 100.041 12.8033 99.9372 12.38C99.833 11.9568 99.7837 11.5159 99.792 11.055ZM102.726 13.9192C103.048 13.9276 103.321 13.8707 103.542 13.7511C103.764 13.6315 103.944 13.455 104.082 13.2207C104.22 12.9874 104.321 12.6971 104.384 12.3508C104.447 12.0061 104.478 11.6088 104.478 11.1596C104.478 10.7689 104.444 10.4059 104.379 10.0679C104.312 9.72916 104.208 9.43471 104.065 9.18375C103.923 8.9328 103.743 8.73455 103.525 8.58983C103.307 8.44428 103.048 8.36732 102.749 8.35979C102.427 8.35644 102.153 8.41333 101.927 8.53127C101.702 8.64922 101.516 8.82155 101.373 9.05074C101.229 9.27744 101.123 9.55683 101.057 9.88558C100.991 10.2135 100.958 10.5866 100.958 11.004C100.958 11.3787 100.993 11.7401 101.066 12.0881C101.137 12.4361 101.245 12.7439 101.39 13.0124C101.534 13.2801 101.717 13.4976 101.939 13.6607C102.16 13.8264 102.423 13.9109 102.726 13.9192Z" fill="#3E454C"/>
<path fill-rule="evenodd" clip-rule="evenodd" d="M106.991 13.9372L107.764 13.8092V9.09634L106.957 8.64463V8.28493L108.47 7.82652L108.725 7.9428V8.77178C108.852 8.65968 109.002 8.54926 109.181 8.43884C109.359 8.32842 109.549 8.22888 109.752 8.14021C109.954 8.05154 110.162 7.97876 110.375 7.92355C110.587 7.86667 110.79 7.83489 110.983 7.82652C111.392 7.8123 111.724 7.86668 111.976 7.99215C112.228 8.11763 112.424 8.33762 112.564 8.65048C112.7 8.54592 112.861 8.44637 113.048 8.3485C113.233 8.25231 113.429 8.16698 113.633 8.09086C113.839 8.01557 114.045 7.9545 114.254 7.9085C114.462 7.86165 114.657 7.83489 114.839 7.82652C115.191 7.81565 115.489 7.85914 115.732 7.96036C115.974 8.06074 116.17 8.22386 116.317 8.44804C116.466 8.67139 116.571 8.96166 116.636 9.31718C116.7 9.6727 116.732 10.0993 116.732 10.5979V13.8151L117.694 13.9372V14.4291H114.868V13.9372L115.641 13.8151V10.8003C115.641 10.4297 115.624 10.1077 115.59 9.83581C115.556 9.56311 115.488 9.33976 115.387 9.16326C115.287 8.98675 115.148 8.85961 114.97 8.77763C114.791 8.69565 114.558 8.66136 114.27 8.67307C114.013 8.68478 113.757 8.73414 113.503 8.82197C113.249 8.90812 112.998 9.02272 112.752 9.16661C112.793 9.35148 112.826 9.56311 112.849 9.80068C112.871 10.0391 112.883 10.285 112.883 10.5393V13.8209L113.752 13.9372V14.4291H110.938V13.9372L111.791 13.8092V10.7083C111.791 10.3411 111.773 10.0257 111.737 9.76304C111.701 9.49954 111.631 9.28539 111.529 9.11893C111.427 8.95413 111.286 8.83451 111.106 8.76257C110.925 8.69147 110.691 8.66136 110.403 8.67307C110.198 8.68478 109.964 8.73831 109.701 8.83284C109.437 8.9282 109.162 9.07543 108.874 9.27619V10.3369C108.874 10.9208 108.872 11.5005 108.868 12.076C108.864 12.6515 108.864 13.2312 108.868 13.8151L109.715 13.9372V14.4291H106.991V13.9372Z" fill="#3E454C"/>
<path fill-rule="evenodd" clip-rule="evenodd" d="M118.548 11.2061C118.548 10.7117 118.624 10.2558 118.777 9.83756C118.932 9.42098 119.146 9.06044 119.421 8.75512C119.695 8.44896 120.026 8.20888 120.413 8.03238C120.799 7.85671 121.226 7.76302 121.692 7.75131C122.026 7.74378 122.328 7.79314 122.597 7.89937C122.866 8.00561 123.095 8.16371 123.284 8.37284C123.474 8.58112 123.623 8.83542 123.73 9.1374C123.838 9.43854 123.901 9.78068 123.915 10.163C123.923 10.4064 123.919 10.6172 123.901 10.7954C123.884 10.9727 123.866 11.1308 123.847 11.2705H119.633V11.3366C119.633 11.3583 119.635 11.3801 119.639 11.4035C119.655 11.8711 119.732 12.2576 119.872 12.5629C120.012 12.8691 120.188 13.1108 120.398 13.2898C120.609 13.4697 120.841 13.596 121.096 13.6679C121.348 13.739 121.597 13.7742 121.84 13.7742C121.988 13.7742 122.143 13.7658 122.306 13.7474C122.469 13.7315 122.628 13.7056 122.781 13.6721C122.935 13.6395 123.077 13.6018 123.208 13.56C123.339 13.5174 123.444 13.473 123.523 13.427L123.733 13.9189C123.624 14.0193 123.481 14.1104 123.304 14.1924C123.128 14.2727 122.936 14.3413 122.727 14.3982C122.519 14.4534 122.3 14.4961 122.073 14.5254C121.846 14.5538 121.623 14.5689 121.408 14.5689C120.949 14.5689 120.543 14.4877 120.188 14.3279C119.833 14.1673 119.535 13.9423 119.292 13.6495C119.049 13.3576 118.865 13.0063 118.737 12.5913C118.611 12.1781 118.548 11.7172 118.548 11.2061ZM122.755 10.5862C122.767 10.3888 122.77 10.1906 122.764 9.99148C122.758 9.79323 122.735 9.60334 122.693 9.42432C122.651 9.24447 122.588 9.07968 122.502 8.93079C122.417 8.78273 122.302 8.66144 122.158 8.56858C122.059 8.50333 121.948 8.45397 121.823 8.42135C121.698 8.38873 121.555 8.37284 121.397 8.37284C121.184 8.37284 120.978 8.41215 120.78 8.49329C120.58 8.57527 120.402 8.70409 120.245 8.88227C120.087 9.06044 119.956 9.28881 119.85 9.56821C119.743 9.84927 119.675 10.1881 119.645 10.5862H122.755Z" fill="#3E454C"/>
<path fill-rule="evenodd" clip-rule="evenodd" d="M125.445 12.7478H125.951L126.172 13.4555C126.268 13.5366 126.361 13.6069 126.454 13.6679C126.547 13.7273 126.642 13.7759 126.738 13.8143C126.835 13.8536 126.938 13.8829 127.048 13.9047C127.158 13.9256 127.28 13.939 127.412 13.9423C127.624 13.9498 127.82 13.934 127.998 13.893C128.176 13.852 128.33 13.7867 128.459 13.6964C128.588 13.6052 128.688 13.4906 128.76 13.3509C128.832 13.212 128.868 13.0456 128.868 12.8523C128.868 12.6792 128.822 12.5303 128.729 12.4065C128.636 12.2818 128.513 12.1714 128.362 12.0727C128.21 11.9749 128.038 11.8837 127.845 11.8C127.651 11.718 127.454 11.6252 127.253 11.5256C127.029 11.4169 126.81 11.299 126.596 11.1685C126.383 11.0388 126.192 10.8949 126.027 10.7343C125.863 10.5729 125.731 10.3938 125.633 10.1923C125.533 9.99149 125.486 9.76145 125.491 9.50213C125.495 9.30137 125.529 9.11901 125.596 8.95757C125.662 8.79529 125.751 8.65057 125.863 8.52258C125.975 8.39543 126.104 8.28418 126.252 8.18965C126.4 8.09512 126.557 8.01566 126.725 7.95208C126.891 7.88767 127.063 7.83999 127.239 7.80737C127.415 7.77474 127.588 7.75551 127.759 7.75132C127.949 7.74798 128.131 7.75634 128.308 7.77809C128.484 7.799 128.649 7.82912 128.803 7.86759C128.956 7.90692 129.094 7.95124 129.218 8.0006C129.341 8.05163 129.446 8.10098 129.533 8.15201V9.39171H129.051L128.806 8.74342C128.752 8.68487 128.694 8.63216 128.632 8.58281C128.57 8.53596 128.5 8.4933 128.422 8.45566C128.344 8.41969 128.256 8.38874 128.158 8.36615C128.059 8.34273 127.947 8.33186 127.821 8.33186C127.64 8.33186 127.472 8.34943 127.318 8.38623C127.166 8.42304 127.032 8.47992 126.918 8.55688C126.804 8.63467 126.714 8.73506 126.648 8.8597C126.581 8.98266 126.546 9.13156 126.543 9.30556C126.534 9.47871 126.576 9.63012 126.667 9.76061C126.759 9.89028 126.877 10.0065 127.026 10.1111C127.173 10.2157 127.343 10.3135 127.535 10.4031C127.726 10.4951 127.922 10.5896 128.123 10.6908C128.332 10.7912 128.543 10.8949 128.757 11.0012C128.972 11.1074 129.164 11.232 129.335 11.3767C129.505 11.5223 129.644 11.6921 129.752 11.8879C129.861 12.0828 129.914 12.3153 129.914 12.5863C129.914 12.9142 129.85 13.202 129.721 13.4504C129.592 13.6972 129.415 13.9038 129.189 14.0695C128.964 14.2359 128.7 14.3606 128.399 14.4434C128.097 14.527 127.775 14.5689 127.43 14.5689C127.084 14.5689 126.74 14.527 126.394 14.4434C126.049 14.3606 125.733 14.2376 125.445 14.0762V12.7478Z" fill="#3E454C"/>
<path fill-rule="evenodd" clip-rule="evenodd" d="M35.7719 21.0578C35.9229 21.2535 35.9984 21.5012 35.9984 21.7998C35.9984 22.2005 35.8506 22.5083 35.5552 22.7233C35.2598 22.9383 34.8297 23.0462 34.2643 23.0462H32.1035V18.4303H34.1355C34.6525 18.4303 35.053 18.5357 35.3353 18.7465C35.6176 18.9573 35.7587 19.2493 35.7587 19.624C35.7587 19.8658 35.7037 20.0749 35.5946 20.2506C35.4838 20.4262 35.3361 20.5601 35.1515 20.6521C35.4141 20.7274 35.6209 20.8621 35.7719 21.0578ZM32.7502 18.964V20.4413H34.0764C34.4088 20.4413 34.6648 20.3786 34.8437 20.2539C35.0226 20.1276 35.1121 19.9444 35.1121 19.7027C35.1121 19.4609 35.0226 19.2777 34.8437 19.1522C34.6648 19.0268 34.4088 18.964 34.0764 18.964H32.7502ZM35.0669 22.3276C35.2524 22.2047 35.3451 22.0106 35.3451 21.7479C35.3451 21.2326 34.9766 20.9758 34.2389 20.9758H32.7502V22.5125H34.2389C34.6057 22.5125 34.8815 22.4506 35.0669 22.3276Z" fill="#3E454C"/>
<path fill-rule="evenodd" clip-rule="evenodd" d="M38.3083 22.5718C37.9718 22.2196 37.8036 21.7144 37.8036 21.0552V18.4303H38.4503V21.0285C38.4503 22.018 38.8754 22.5124 39.7256 22.5124C40.1392 22.5124 40.4568 22.3903 40.6767 22.146C40.8966 21.9018 41.0066 21.5295 41.0066 21.0285V18.4303H41.6344V21.0552C41.6344 21.7186 41.4662 22.2255 41.1297 22.5752C40.7924 22.9248 40.323 23.0997 39.719 23.0997C39.115 23.0997 38.6448 22.9231 38.3083 22.5718Z" fill="#3E454C"/>
<path d="M44.4491 18.4303H43.8016V23.047H44.4491V18.4303Z" fill="#3E454C"/>
<path fill-rule="evenodd" clip-rule="evenodd" d="M46.6483 18.4302H47.2958V22.473H49.7479V23.0469H46.6483V18.4302Z" fill="#3E454C"/>
<path fill-rule="evenodd" clip-rule="evenodd" d="M51.3324 18.4302H53.2413C53.7205 18.4302 54.1448 18.5264 54.5166 18.7204C54.8867 18.9137 55.1747 19.1847 55.3799 19.5344C55.5843 19.884 55.6868 20.2855 55.6868 20.7381C55.6868 21.1915 55.5843 21.5922 55.3799 21.9418C55.1747 22.2915 54.8867 22.5625 54.5166 22.7566C54.1448 22.9498 53.7205 23.0469 53.2413 23.0469H51.3324V18.4302ZM53.2027 22.473C53.5695 22.473 53.892 22.4002 54.1703 22.2547C54.4485 22.11 54.6627 21.9067 54.8137 21.6449C54.9647 21.3831 55.0402 21.0811 55.0402 20.7381C55.0402 20.3951 54.9647 20.0923 54.8137 19.8313C54.6627 19.5695 54.4485 19.3662 54.1703 19.2207C53.892 19.076 53.5695 19.004 53.2027 19.004H51.9799V22.473L53.2027 22.473Z" fill="#3E454C"/>
<path d="M58.1656 18.4303H57.5181V23.047H58.1656V18.4303Z" fill="#3E454C"/>
<path fill-rule="evenodd" clip-rule="evenodd" d="M64.26 18.4302V23.0469H63.7298L61.0118 19.6038V23.0469H60.3651V18.4302H60.8952L63.6141 21.8724V18.4302H64.26Z" fill="#3E454C"/>
<path fill-rule="evenodd" clip-rule="evenodd" d="M69.5982 20.7118H70.2194V22.5119C69.9946 22.7018 69.7344 22.8465 69.4373 22.9478C69.1386 23.049 68.8292 23.0992 68.5051 23.0992C68.0471 23.0992 67.6352 22.9963 67.2692 22.7922C66.9023 22.5881 66.6143 22.307 66.405 21.949C66.1958 21.5901 66.0924 21.1861 66.0924 20.7377C66.0924 20.2893 66.1958 19.8853 66.405 19.5248C66.6143 19.1642 66.904 18.8823 67.2724 18.6799C67.6409 18.4783 68.0561 18.3771 68.5182 18.3771C68.8801 18.3771 69.2092 18.4373 69.5047 18.5586C69.8001 18.6791 70.0512 18.8564 70.2588 19.0898L69.8567 19.498C69.4948 19.1425 69.0574 18.9643 68.5436 18.9643C68.199 18.9643 67.8896 19.0396 67.6155 19.1918C67.3414 19.3432 67.1263 19.554 66.9721 19.8242C66.8161 20.0953 66.739 20.3998 66.739 20.7377C66.739 21.0723 66.8161 21.3743 66.9721 21.6445C67.1263 21.9147 67.3414 22.1271 67.6155 22.2811C67.8896 22.4358 68.1965 22.5119 68.5371 22.5119C68.9425 22.5119 69.297 22.4132 69.5982 22.2158V20.7118Z" fill="#3E454C"/>
<path fill-rule="evenodd" clip-rule="evenodd" d="M74.8783 18.4302H76.7863C77.2655 18.4302 77.6898 18.5264 78.0616 18.7204C78.4325 18.9137 78.7198 19.1847 78.9249 19.5344C79.1293 19.884 79.2318 20.2855 79.2318 20.7381C79.2318 21.1915 79.1293 21.5922 78.9249 21.9418C78.7198 22.2915 78.4325 22.5625 78.0616 22.7566C77.6898 22.9498 77.2655 23.0469 76.7863 23.0469H74.8783V18.4302ZM76.7477 22.473C77.1137 22.473 77.4371 22.4002 77.7152 22.2547C77.9935 22.11 78.2076 21.9067 78.3587 21.6449C78.5096 21.3831 78.5852 21.0811 78.5852 20.7381C78.5852 20.3951 78.5096 20.0923 78.3587 19.8313C78.2076 19.5695 77.9935 19.3662 77.7152 19.2207C77.4371 19.076 77.1137 19.004 76.7477 19.004H75.525V22.473L76.7477 22.473Z" fill="#3E454C"/>
<path d="M81.7102 18.4303H81.0635V23.047H81.7102V18.4303Z" fill="#3E454C"/>
<path fill-rule="evenodd" clip-rule="evenodd" d="M84.2434 22.9378C83.9266 22.8299 83.678 22.6902 83.4966 22.5187L83.7362 22.0042C83.9086 22.1623 84.1293 22.292 84.3985 22.3907C84.6693 22.4894 84.945 22.5379 85.2306 22.5379C85.6057 22.5379 85.8864 22.4735 86.0718 22.3439C86.2573 22.2142 86.3492 22.0419 86.3492 21.8261C86.3492 21.668 86.2991 21.5391 86.1982 21.4404C86.0964 21.3417 85.9709 21.2656 85.8223 21.2129C85.6738 21.1602 85.4629 21.1008 85.1913 21.0356C84.8507 20.9511 84.5758 20.8674 84.3665 20.7846C84.1581 20.701 83.9784 20.5721 83.8298 20.399C83.6805 20.225 83.6066 19.9908 83.6066 19.6963C83.6066 19.4495 83.6706 19.227 83.797 19.0296C83.9242 18.8322 84.1179 18.6733 84.3763 18.5553C84.6357 18.4365 84.9566 18.3771 85.3406 18.3771C85.6081 18.3771 85.8707 18.4123 86.1301 18.4825C86.3886 18.5528 86.611 18.654 86.7956 18.7862L86.5831 19.3132C86.3927 19.1911 86.19 19.0965 85.9741 19.033C85.7592 18.9694 85.5474 18.9376 85.3406 18.9376C84.9738 18.9376 84.6989 19.0062 84.5158 19.1425C84.332 19.2781 84.2402 19.4546 84.2402 19.6695C84.2402 19.8276 84.2927 19.9573 84.396 20.056C84.4994 20.1547 84.6275 20.2317 84.7809 20.286C84.9344 20.3413 85.142 20.3998 85.4054 20.4609C85.746 20.5454 86.0201 20.6282 86.2269 20.7118C86.4338 20.7947 86.6118 20.9226 86.7603 21.0941C86.9097 21.2656 86.9844 21.4965 86.9844 21.7867C86.9844 22.0285 86.9196 22.2493 86.7899 22.4493C86.6602 22.6492 86.4641 22.8081 86.2015 22.9244C85.9373 23.0407 85.6147 23.0992 85.2306 23.0992C84.8893 23.0992 84.561 23.0457 84.2434 22.9378Z" fill="#3E454C"/>
<path fill-rule="evenodd" clip-rule="evenodd" d="M89.6042 19.0036H88.0508V18.4298H91.7978V19.0036H90.2444V23.0465H89.6042V19.0036Z" fill="#3E454C"/>
<path d="M93.9914 18.4303H93.3447V23.047H93.9914V18.4303Z" fill="#3E454C"/>
<path fill-rule="evenodd" clip-rule="evenodd" d="M100.086 18.4302V23.0469H99.5558L96.8378 19.6038V23.0469H96.1912V18.4302H96.7213L99.4393 21.8724V18.4302H100.086Z" fill="#3E454C"/>
<path fill-rule="evenodd" clip-rule="evenodd" d="M103.085 22.7924C102.721 22.5883 102.434 22.3072 102.227 21.9484C102.021 21.5903 101.917 21.1863 101.917 20.7379C101.917 20.2896 102.021 19.8864 102.227 19.5284C102.434 19.1695 102.721 18.8884 103.088 18.6835C103.454 18.4794 103.865 18.3773 104.318 18.3773C104.671 18.3773 104.995 18.4375 105.288 18.558C105.581 18.6793 105.832 18.8583 106.038 19.0959L105.618 19.5116C105.277 19.1469 104.852 18.9645 104.343 18.9645C104.006 18.9645 103.703 19.0415 103.431 19.1946C103.16 19.3493 102.946 19.561 102.794 19.8312C102.64 20.1014 102.564 20.4042 102.564 20.7379C102.564 21.0717 102.64 21.3745 102.794 21.6447C102.946 21.9149 103.16 22.1274 103.431 22.2813C103.703 22.4352 104.006 22.5122 104.343 22.5122C104.848 22.5122 105.273 22.3273 105.618 21.9584L106.038 22.3742C105.832 22.6109 105.58 22.7916 105.285 22.9145C104.989 23.0375 104.665 23.0994 104.311 23.0994C103.858 23.0994 103.449 22.9965 103.085 22.7924Z" fill="#3E454C"/>
<path fill-rule="evenodd" clip-rule="evenodd" d="M108.652 19.0036H107.099V18.4298H110.846V19.0036H109.292V23.0465H108.652V19.0036Z" fill="#3E454C"/>
<path d="M113.04 18.4303H112.393V23.047H113.04V18.4303Z" fill="#3E454C"/>
<path fill-rule="evenodd" clip-rule="evenodd" d="M116.048 22.7922C115.681 22.5881 115.393 22.3053 115.184 21.9456C114.975 21.5842 114.871 21.1827 114.871 20.7377C114.871 20.2944 114.975 19.892 115.184 19.5315C115.393 19.1709 115.681 18.8882 116.048 18.6832C116.415 18.4791 116.827 18.3771 117.284 18.3771C117.737 18.3771 118.146 18.4791 118.513 18.6832C118.88 18.8882 119.166 19.1692 119.374 19.5281C119.581 19.887 119.684 20.2893 119.684 20.7377C119.684 21.1861 119.581 21.5901 119.374 21.949C119.166 22.307 118.88 22.5881 118.513 22.7922C118.146 22.9963 117.737 23.1 117.284 23.1C116.827 23.1 116.415 22.9963 116.048 22.7922ZM118.18 22.2811C118.445 22.1271 118.654 21.9155 118.808 21.6445C118.96 21.3743 119.037 21.0723 119.037 20.7377C119.037 20.4039 118.96 20.102 118.808 19.8309C118.654 19.5607 118.445 19.3491 118.18 19.1952C117.915 19.0413 117.616 18.9643 117.284 18.9643C116.951 18.9643 116.651 19.0413 116.382 19.1952C116.111 19.3491 115.9 19.5607 115.747 19.8309C115.594 20.102 115.518 20.4039 115.518 20.7377C115.518 21.0723 115.594 21.3743 115.747 21.6445C115.9 21.9155 116.111 22.1271 116.382 22.2811C116.651 22.4358 116.951 22.5119 117.284 22.5119C117.616 22.5119 117.915 22.4358 118.18 22.2811Z" fill="#3E454C"/>
<path fill-rule="evenodd" clip-rule="evenodd" d="M125.41 18.4302V23.0469H124.88L122.162 19.6038V23.0469H121.515V18.4302H122.045L124.763 21.8724V18.4302H125.41Z" fill="#3E454C"/>
<path fill-rule="evenodd" clip-rule="evenodd" d="M129.065 18.6299C129.328 18.7838 129.536 18.9955 129.687 19.2648C129.838 19.5342 129.914 19.8328 129.914 20.1607C129.914 20.4887 129.836 20.789 129.683 21.0617C129.527 21.3344 129.317 21.5493 129.051 21.7066C128.786 21.8639 128.492 21.9417 128.171 21.9417C127.848 21.9417 127.556 21.8639 127.291 21.7066C127.027 21.5493 126.818 21.3352 126.667 21.0642C126.513 20.7923 126.437 20.4953 126.437 20.1708C126.437 19.8462 126.513 19.5484 126.667 19.2774C126.818 19.0064 127.028 18.7922 127.294 18.6349C127.56 18.4777 127.855 18.399 128.18 18.399C128.505 18.399 128.8 18.476 129.065 18.6299ZM128.938 21.5109C129.169 21.3737 129.349 21.1863 129.482 20.9487C129.615 20.7112 129.683 20.4485 129.683 20.1607C129.683 19.873 129.617 19.612 129.487 19.3778C129.358 19.1435 129.179 18.9595 128.951 18.8257C128.723 18.6918 128.466 18.6249 128.18 18.6249C127.898 18.6249 127.641 18.6935 127.409 18.8307C127.179 18.9679 126.997 19.1536 126.865 19.3903C126.735 19.6262 126.669 19.8864 126.669 20.1708C126.669 20.4552 126.735 20.7153 126.865 20.9512C126.997 21.1871 127.178 21.3737 127.407 21.5109C127.637 21.6481 127.891 21.7166 128.171 21.7166C128.452 21.7166 128.708 21.6481 128.938 21.5109ZM128.953 20.2352C128.881 20.3431 128.779 20.4201 128.648 20.4669L129.097 21.1738H128.757L128.348 20.5321H127.811V21.1738H127.476V19.167H128.264C128.511 19.167 128.704 19.2289 128.847 19.3527C128.991 19.4765 129.062 19.6413 129.062 19.8496C129.062 20.0001 129.026 20.1281 128.953 20.2352ZM128.606 20.1457C128.693 20.0754 128.736 19.9767 128.736 19.8496C128.736 19.7224 128.693 19.6245 128.606 19.5559C128.52 19.4874 128.397 19.4531 128.24 19.4531H127.806V20.2511H128.24C128.397 20.2511 128.52 20.2159 128.606 20.1457Z" fill="#3E454C"/>
<path d="M12.3367 5.50075L10.4549 7.42501C10.2673 7.6163 10.2671 7.92898 10.4562 8.12119L13.3779 11.0954C13.5666 11.2887 13.5662 11.6003 13.3783 11.7932L11.5593 13.6544C11.3713 13.8467 11.065 13.847 10.8763 13.6542L7.95418 10.6796C7.76561 10.4873 7.45928 10.4876 7.27137 10.6805L5.38996 12.6037C5.20152 12.7961 5.2012 13.1077 5.39023 13.2999L9.20163 17.1807C9.3902 17.373 9.39039 17.6845 9.20201 17.8775L7.29804 19.8238C7.11018 20.0166 6.80482 20.0168 6.61574 19.8246L0.142043 13.2321C-0.0470422 13.0399 -0.0471766 12.7283 0.140618 12.535L12.2592 0.144155C12.4477 -0.047729 12.753 -0.0484406 12.9417 0.144355L19.4163 6.73623C19.6048 6.9285 19.6051 7.24059 19.4171 7.43294L17.5128 9.37983C17.3243 9.57223 17.0195 9.57289 16.8298 9.37969L13.0191 5.50042C12.8299 5.30722 12.5252 5.30834 12.3367 5.50075Z" fill="#3E454C"/>
<path d="M22.0621 15.3917L20.1824 17.3173C19.9945 17.5097 19.6887 17.5104 19.5002 17.3186L16.5766 14.3447C16.3865 14.1531 16.0813 14.1538 15.8933 14.3462L14.0744 16.2079C13.886 16.4008 13.8866 16.7123 14.0752 16.9046L16.9993 19.8784C17.1888 20.0701 17.1886 20.3822 17.0011 20.5745L15.1205 22.4997C14.933 22.692 14.6268 22.6933 14.4382 22.501L10.6247 18.6237C10.435 18.431 10.1303 18.4316 9.94132 18.6241L8.0396 20.5722C7.85065 20.7647 7.85142 21.0767 8.0405 21.2689L14.5196 27.8561C14.7077 28.0484 15.0135 28.0477 15.202 27.8557L27.3119 15.4562C27.5003 15.2638 27.4995 14.9518 27.3105 14.7596L20.8324 8.17235C20.6432 7.97963 20.3374 7.98035 20.1495 8.17269L18.2473 10.1214C18.0589 10.3138 18.0591 10.6259 18.2476 10.8177L22.0612 14.6956C22.2508 14.8877 22.2505 15.1993 22.0621 15.3917Z" fill="#3E454C"/>
</g>
<defs>
<clipPath id="clip0_4_9856">
<rect width="129.92" height="28" fill="white"/>
</clipPath>
</defs>
</svg>
