<svg width="25" height="24" viewBox="0 0 25 24" fill="none" xmlns="http://www.w3.org/2000/svg">
<g clip-path="url(#clip0_31_3097)">
<path fill-rule="evenodd" clip-rule="evenodd" d="M8.13609 8.90326C8.44851 9.21568 8.44851 9.72221 8.13609 10.0346L4.5814 13.5893L6.02526 15.0332L7.51977 13.5387C7.83219 13.2263 8.33872 13.2263 8.65114 13.5387C8.96356 13.8511 8.96356 14.3576 8.65114 14.6701L7.15664 16.1646L10.6607 19.6686L14.2154 16.1139C14.5278 15.8015 15.0343 15.8015 15.3468 16.1139C15.6592 16.4264 15.6592 16.9329 15.3468 17.2453L11.2264 21.3657C10.914 21.6781 10.4074 21.6781 10.095 21.3657L2.88434 14.155C2.57192 13.8426 2.57192 13.3361 2.88434 13.0236L7.00472 8.90326C7.31714 8.59084 7.82367 8.59084 8.13609 8.90326Z" fill="#76D5D8"/>
<path fill-rule="evenodd" clip-rule="evenodd" d="M18.9762 2.66669C18.4909 2.66669 18.0255 2.85942 17.6823 3.20251L13.9883 6.89652C13.9452 6.9396 13.8867 6.96381 13.8257 6.96381C13.7647 6.96381 13.7062 6.93952 13.663 6.89644L11.5142 4.74766C11.1711 4.40457 10.7056 4.21183 10.2204 4.21183C9.7351 4.21183 9.2696 4.40465 8.92641 4.74774L6.5644 7.10975C6.42248 7.25165 6.30989 7.42012 6.23308 7.60553C6.15624 7.79098 6.1167 7.98975 6.1167 8.19049C6.1167 8.39122 6.15624 8.58999 6.23308 8.77544C6.30989 8.96085 6.42256 9.1294 6.56448 9.27131L14.8052 17.512C14.9471 17.6539 15.1155 17.7665 15.3009 17.8433C15.4864 17.9201 15.6852 17.9597 15.8859 17.9597C16.0866 17.9597 16.2854 17.9201 16.4709 17.8433C16.6563 17.7665 16.8248 17.6538 16.9667 17.5119L19.3287 15.1499C19.6718 14.8067 19.8646 14.3413 19.8646 13.856C19.8646 13.3707 19.6717 12.9052 19.3286 12.5621L17.1799 10.4133C17.1368 10.3701 17.1126 10.3116 17.1126 10.2507C17.1126 10.1897 17.1369 10.1311 17.1799 10.088L20.8739 6.39408C21.217 6.05088 21.4097 5.58548 21.4097 5.1002C21.4097 4.61492 21.2169 4.14943 20.8738 3.80624L20.2701 3.20251C19.9269 2.85942 19.4615 2.66669 18.9762 2.66669ZM15.8859 16.33L18.1972 14.0187C18.2403 13.9755 18.2646 13.917 18.2646 13.856C18.2646 13.795 18.2404 13.7366 18.1973 13.6934L16.0485 11.5446C15.7054 11.2014 15.5126 10.736 15.5126 10.2507C15.5126 9.7654 15.7053 9.29999 16.0484 8.9568L19.7423 5.26288C19.7854 5.21973 19.8097 5.16117 19.8097 5.1002C19.8097 5.03923 19.7855 4.98075 19.7424 4.93761L19.1389 4.33406C19.0957 4.29097 19.0372 4.26669 18.9762 4.26669C18.9152 4.26669 18.8567 4.29089 18.8136 4.33397L15.1197 8.02789C14.7765 8.37099 14.311 8.56381 13.8257 8.56381C13.3404 8.56381 12.875 8.37107 12.5318 8.02798L10.383 5.8792C10.3399 5.83612 10.2813 5.81183 10.2204 5.81183C10.1594 5.81183 10.1009 5.83603 10.0578 5.87911L7.74641 8.19049L15.8859 16.33Z" fill="#3E454C"/>
</g>
<defs>
<clipPath id="clip0_31_3097">
<rect width="24" height="24" fill="white" transform="translate(0.25)"/>
</clipPath>
</defs>
</svg>
