<svg width="17" height="16" viewBox="0 0 17 16" fill="none" xmlns="http://www.w3.org/2000/svg">
<g clip-path="url(#clip0_607_1174)">
<path fill-rule="evenodd" clip-rule="evenodd" d="M5.50739 5.93551C5.71567 6.14379 5.71567 6.48147 5.50739 6.68975L3.13759 9.05955L4.10017 10.0221L5.0965 9.02579C5.30478 8.81751 5.64247 8.81751 5.85075 9.02579C6.05903 9.23407 6.05903 9.57176 5.85075 9.78004L4.85441 10.7764L7.19045 13.1124L9.56025 10.7426C9.76853 10.5343 10.1062 10.5343 10.3145 10.7426C10.5228 10.9509 10.5228 11.2886 10.3145 11.4969L7.56758 14.2438C7.3593 14.4521 7.02161 14.4521 6.81333 14.2438L2.00622 9.43668C1.79794 9.2284 1.79794 8.89071 2.00622 8.68243L4.75314 5.93551C4.96142 5.72723 5.29911 5.72723 5.50739 5.93551Z" fill="#76D5D8"/>
<path fill-rule="evenodd" clip-rule="evenodd" d="M12.7341 1.77777C12.4106 1.77777 12.1003 1.90626 11.8715 2.13499L9.40885 4.59766C9.38009 4.62638 9.34111 4.64252 9.30046 4.64252C9.25981 4.64252 9.22077 4.62633 9.19201 4.59761L7.75949 3.16508C7.53069 2.93636 7.22042 2.80787 6.8969 2.80787C6.57338 2.80787 6.26305 2.93641 6.03426 3.16514L4.45958 4.73981C4.36497 4.83442 4.28991 4.94673 4.2387 5.07034C4.18748 5.19397 4.16112 5.32648 4.16112 5.4603C4.16112 5.59413 4.18748 5.72664 4.2387 5.85027C4.28991 5.97388 4.36503 6.08625 4.45964 6.18085L9.95343 11.6746C10.048 11.7693 10.1603 11.8443 10.284 11.8955C10.4076 11.9467 10.5401 11.9731 10.6739 11.9731C10.8077 11.9731 10.9403 11.9467 11.0639 11.8955C11.1875 11.8443 11.2999 11.7692 11.3945 11.6746L12.9691 10.0999C13.1979 9.87111 13.3264 9.56084 13.3264 9.23732C13.3264 8.91381 13.1978 8.60348 12.9691 8.37468L11.5366 6.94216C11.5078 6.9134 11.4917 6.87441 11.4917 6.83377C11.4917 6.79312 11.5079 6.75408 11.5366 6.72531L13.9992 4.2627C14.228 4.0339 14.3565 3.72363 14.3565 3.40011C14.3565 3.07659 14.2279 2.76627 13.9992 2.53747L13.5967 2.13499C13.3679 1.90626 13.0576 1.77777 12.7341 1.77777ZM10.6739 10.8866L12.2148 9.34577C12.2435 9.31701 12.2597 9.27797 12.2597 9.23732C12.2597 9.19668 12.2436 9.15769 12.2148 9.12893L10.7823 7.69641C10.5536 7.46761 10.425 7.15729 10.425 6.83377C10.425 6.51025 10.5535 6.19997 10.7823 5.97118L13.2449 3.50856C13.2736 3.4798 13.2898 3.44076 13.2898 3.40011C13.2898 3.35946 13.2737 3.32048 13.2449 3.29172L12.8426 2.88935C12.8138 2.86063 12.7748 2.84444 12.7341 2.84444C12.6935 2.84444 12.6545 2.86057 12.6257 2.88929L10.1631 5.35191C9.9343 5.58064 9.62397 5.70918 9.30046 5.70918C8.97694 5.70918 8.66667 5.58069 8.43787 5.35197L7.00535 3.91945C6.97659 3.89072 6.93755 3.87453 6.8969 3.87453C6.85625 3.87453 6.81727 3.89067 6.7885 3.91939L5.24759 5.4603L10.6739 10.8866Z" fill="#F9F9F9"/>
</g>
<defs>
<clipPath id="clip0_607_1174">
<rect width="16" height="16" fill="white" transform="translate(0.25)"/>
</clipPath>
</defs>
</svg>
